<?xml version="1.0" standalone="no"?>
<!DOCTYPE svg PUBLIC "-//W3C//DTD SVG 20010904//EN"
 "http://www.w3.org/TR/2001/REC-SVG-20010904/DTD/svg10.dtd">
<svg version="1.0" xmlns="http://www.w3.org/2000/svg"
 width="334.000000pt" height="297.000000pt" viewBox="0 0 334.000000 297.000000"
 preserveAspectRatio="xMidYMid meet">
<metadata>
Created by potrace 1.13, written by Peter Selinger 2001-2015
</metadata>
<g transform="translate(0.000000,297.000000) scale(0.100000,-0.100000)"
fill="#000000" stroke="none">
<path d="M948 2940 c-21 -5 -64 -23 -95 -39 -60 -30 -148 -99 -139 -109 3 -3
-4 -20 -15 -39 -30 -48 -19 -41 25 17 69 90 213 170 309 170 48 0 150 -26 186
-47 25 -14 25 -14 6 2 -11 9 -35 24 -53 31 -42 18 -175 26 -224 14z"/>
<path d="M588 2568 c-3 -7 6 -28 19 -47 13 -18 23 -42 23 -51 0 -10 11 -25 25
-34 23 -15 25 -15 25 1 0 37 -21 87 -47 115 -29 31 -39 34 -45 16z"/>
<path d="M544 2548 c-14 -16 -14 -19 -2 -10 14 11 17 10 21 -5 3 -12 5 -8 6
10 1 33 -1 33 -25 5z"/>
<path d="M545 2454 c-5 -27 -2 -41 11 -56 18 -19 18 -19 34 2 14 19 19 20 43
9 15 -7 27 -17 27 -23 0 -6 -5 -5 -12 2 -16 16 -28 15 -28 -1 0 -8 -9 -22 -19
-31 -15 -14 -24 -15 -40 -6 -12 6 -21 16 -21 22 0 6 -3 8 -7 5 -3 -4 4 -18 17
-32 32 -34 73 -33 100 3 l21 29 42 -39 c58 -54 128 -99 140 -91 6 4 1 13 -14
22 -13 9 -70 53 -126 99 -56 45 -107 82 -112 82 -6 0 -15 9 -21 20 -16 30 -27
24 -35 -16z"/>
<path d="M1663 2288 c-5 -7 -13 -21 -16 -30 -3 -10 -7 -277 -7 -593 l-2 -576
-50 3 c-56 3 -61 9 -76 78 l-10 45 -1 -49 c-1 -35 4 -52 16 -61 14 -11 12 -14
-18 -29 -21 -10 -35 -13 -37 -6 -2 5 -11 10 -20 11 -9 0 -12 3 -6 5 8 3 9 18
2 52 -16 74 -26 70 -20 -7 2 -39 3 -71 1 -71 -48 -5 -117 -7 -96 -4 25 5 27 9
26 52 l0 47 -17 -25 c-36 -53 -60 -71 -87 -64 -14 3 -25 2 -25 -4 0 -20 -94
-32 -275 -36 -178 -4 -168 -2 -149 -31 9 -14 15 -25 13 -26 -2 0 -15 -2 -28
-3 -13 -2 -28 -10 -33 -19 -12 -22 -51 -22 -71 1 -8 9 -20 35 -26 57 -27 103
-64 97 -60 -10 4 -82 -8 -105 -51 -105 -52 0 -57 20 -34 148 4 19 2 32 -4 32
-11 0 -21 -63 -26 -170 -2 -36 -6 -72 -10 -81 -8 -18 -8 -18 104 -22 67 -2
108 -11 190 -40 129 -44 204 -57 340 -57 159 0 310 39 310 80 0 30 -35 50
-124 69 -48 11 -90 22 -94 25 -3 3 123 5 279 5 l285 -2 -5 -31 -6 -31 -3 28
c-3 21 -8 27 -20 23 -53 -14 -62 -18 -62 -25 0 -4 27 -15 60 -25 52 -16 91
-17 327 -13 288 4 361 15 394 56 19 23 17 67 -4 88 -7 6 -28 16 -47 21 -40 11
-40 9 1 113 l30 76 79 22 79 23 1 474 0 473 -32 6 c-18 3 -208 34 -423 70
-214 35 -404 67 -421 71 -20 4 -34 1 -41 -8z m99 -81 c31 -29 97 -99 147 -157
l91 -105 0 -301 0 -301 -92 -107 c-81 -92 -194 -196 -214 -196 -4 0 -5 274 -3
610 2 335 6 610 9 610 3 -1 31 -24 62 -53z m797 -259 c-5 -20 -7 -144 -4 -303
4 -204 3 -264 -6 -245 -13 30 -12 520 1 556 14 35 20 29 9 -8z m-249 -833 c0
-2 -11 -29 -24 -59 -24 -54 -24 -54 -63 -49 -21 2 -57 0 -80 -5 -24 -5 -41 -6
-38 -1 3 4 -10 11 -30 15 -19 3 -35 10 -35 14 0 4 33 18 73 30 39 11 97 29
127 40 60 20 70 22 70 15z m-1065 -65 c3 -5 1 -10 -4 -10 -6 0 -11 5 -11 10 0
6 2 10 4 10 3 0 8 -4 11 -10z m-610 -101 c4 -11 9 -18 12 -15 3 3 17 -4 31
-14 27 -22 72 -27 72 -8 0 9 3 9 12 0 18 -18 -9 -34 -46 -26 -16 3 -34 7 -40
8 -6 1 -17 5 -23 9 -7 5 -13 4 -13 0 0 -11 -54 -43 -73 -43 -11 0 -6 10 15 30
16 17 34 30 39 30 6 0 6 8 -1 19 -12 24 -13 31 -1 31 5 0 13 -9 16 -21z m1265
11 c0 -6 -8 -14 -17 -18 -13 -5 -7 -9 22 -13 23 -4 -12 -7 -85 -8 -69 -1 -154
-5 -190 -10 -36 -5 -146 -6 -245 -2 -99 4 -164 9 -145 10 19 1 119 10 222 19
166 15 187 16 196 2 8 -13 19 -12 88 6 87 24 154 30 154 14z m-1037 -45 c53
-25 57 -25 168 -15 126 11 163 12 139 3 -64 -24 -41 -46 75 -73 51 -12 101
-27 111 -34 17 -13 16 -15 -12 -29 -55 -28 -160 -40 -298 -34 -130 6 -205 20
-287 55 l-43 19 32 11 c27 9 32 16 32 42 0 18 6 32 15 35 46 15 51 18 28 22
-13 3 -23 9 -23 14 0 12 0 12 63 -16z m-198 -55 c-3 -5 -13 -10 -21 -10 -8 0
-14 5 -14 10 0 6 9 10 21 10 11 0 17 -4 14 -10z m-95 -40 c0 -5 -5 -10 -11
-10 -5 0 -7 5 -4 10 3 6 8 10 11 10 2 0 4 -4 4 -10z"/>
<path d="M1710 2220 c0 -5 5 -10 11 -10 5 0 7 5 4 10 -3 6 -8 10 -11 10 -2 0
-4 -4 -4 -10z"/>
<path d="M1250 2186 c0 -8 6 -17 13 -20 6 -3 -31 -4 -83 -2 -107 6 -106 -9 3
-20 37 -4 67 -11 67 -15 0 -13 97 -11 121 1 22 12 25 33 7 48 -7 5 -39 12 -70
16 -46 4 -58 3 -58 -8z"/>
<path d="M812 1407 c-3 -25 -37 -91 -56 -106 -22 -18 -20 -43 2 -39 24 4 64
92 59 131 -2 18 -5 24 -5 14z"/>
<path d="M1220 1389 c0 -11 5 -17 10 -14 6 3 10 13 10 21 0 8 -4 14 -10 14 -5
0 -10 -9 -10 -21z"/>
<path d="M1224 1286 c4 -26 16 -57 26 -69 11 -12 25 -30 33 -41 17 -24 57 -13
57 15 0 11 5 29 11 41 14 26 7 32 -38 30 -38 -2 -73 20 -73 44 0 7 -5 16 -11
20 -9 5 -10 -6 -5 -40z"/>
<path d="M649 1213 l-24 -28 28 24 c25 23 32 31 24 31 -2 0 -14 -12 -28 -27z"/>
<path d="M1575 1171 c6 -40 21 -61 44 -60 12 0 12 2 -3 8 -11 4 -25 25 -33 47
-12 38 -13 38 -8 5z"/>
<path d="M604 1158 l-19 -23 23 19 c21 18 27 26 19 26 -2 0 -12 -10 -23 -22z"/>
<path d="M310 907 l0 -65 43 -11 c23 -7 48 -15 55 -17 10 -5 10 -1 1 19 -7 14
-17 23 -25 20 -13 -5 -54 63 -54 91 0 8 -4 18 -10 21 -6 4 -10 -18 -10 -58z"/>
</g>
</svg>
